<?xml version="1.0" standalone="no"?>
<!DOCTYPE svg PUBLIC "-//W3C//DTD SVG 20010904//EN"
 "http://www.w3.org/TR/2001/REC-SVG-20010904/DTD/svg10.dtd">
<svg version="1.0" xmlns="http://www.w3.org/2000/svg"
 width="900.000000pt" height="500.000000pt" viewBox="0 0 900.000000 500.000000"
 preserveAspectRatio="xMidYMid meet">

<g transform="translate(0.000000,500.000000) scale(0.100000,-0.100000)"
fill="#000000" stroke="none">
<path d="M4210 4685 c-374 -53 -658 -192 -911 -445 -233 -233 -399 -544 -481
-901 -19 -87 -21 -129 -25 -556 l-5 -463 101 0 101 0 0 -150 0 -150 140 0 141
0 74 -64 c84 -74 185 -150 300 -226 44 -29 137 -94 208 -144 l127 -90 0 -249
c0 -144 -4 -256 -10 -267 -5 -10 -58 -49 -117 -87 l-107 -68 -549 -146 c-587
-157 -590 -158 -603 -225 -10 -57 35 -106 98 -106 18 0 282 68 585 151 l553
152 121 76 c90 57 132 91 160 128 63 83 69 113 69 322 0 102 3 183 8 181 4 -2
56 -28 116 -58 104 -52 112 -55 185 -55 72 0 83 3 184 52 l107 52 0 -192 c0
-209 6 -236 67 -316 26 -33 286 -211 310 -211 6 0 251 -65 543 -145 292 -80
549 -145 570 -145 53 0 100 40 100 83 0 36 -30 91 -57 105 -10 5 -261 76 -558
158 l-540 148 -115 75 -115 76 -2 250 -3 250 53 35 c28 19 116 82 193 140 78
58 187 138 242 178 55 41 127 98 160 128 l60 54 141 0 141 0 0 150 0 150 101
0 100 0 -4 463 c-3 424 -5 469 -25 552 -81 353 -233 647 -455 881 -220 233
-488 379 -821 450 -104 22 -152 26 -341 29 -152 3 -249 0 -315 -10z m611 -214
c197 -43 348 -105 498 -205 282 -189 493 -486 596 -841 46 -159 55 -253 55
-593 l0 -312 -100 50 -100 50 0 -200 0 -200 -52 0 c-51 0 -56 -3 -135 -71 -46
-39 -83 -67 -83 -62 0 4 9 37 20 73 35 112 88 331 105 432 l17 97 -25 78 c-14
43 -29 94 -32 113 -23 118 -157 498 -262 745 -30 72 -56 131 -58 133 -1 1 -14
-58 -29 -133 -28 -140 -50 -216 -83 -279 l-19 -37 -28 218 c-15 120 -39 312
-54 426 -18 144 -29 203 -35 191 -5 -9 -44 -96 -86 -193 -82 -187 -141 -290
-242 -422 -59 -78 -189 -222 -195 -217 -1 2 20 154 46 338 27 184 47 336 46
337 -2 2 -31 -39 -66 -90 -190 -275 -431 -586 -527 -680 l-49 -48 0 346 c1
190 -1 345 -4 345 -14 -1 -551 -1040 -585 -1132 -17 -45 -16 -50 9 -181 26
-136 94 -388 121 -454 8 -19 15 -37 15 -40 0 -2 -47 34 -104 81 -100 83 -106
86 -155 86 l-51 0 0 200 0 200 -100 -50 -100 -50 0 303 c0 325 7 413 45 562
69 272 213 526 409 720 216 215 501 347 836 389 19 2 127 3 240 1 162 -3 225
-8 301 -24z m165 -1211 c15 -129 29 -237 31 -239 17 -24 204 153 244 231 l23
43 52 -160 c81 -247 108 -364 99 -433 -21 -173 -108 -518 -176 -692 -42 -110
-89 -159 -272 -288 -237 -165 -423 -274 -495 -288 -55 -11 -270 113 -527 306
-150 112 -181 144 -220 225 -74 153 -167 469 -202 683 l-17 106 122 241 c68
133 128 249 135 259 10 13 11 -19 7 -159 -5 -193 -8 -187 57 -160 98 41 353
273 453 412 24 34 45 61 46 60 2 -1 -13 -103 -31 -227 -19 -123 -32 -226 -30
-228 9 -9 214 159 308 252 114 113 203 221 286 345 l56 84 11 -69 c6 -38 24
-175 40 -304z"/>
<path d="M3590 2808 c0 -19 55 -110 79 -132 16 -14 21 -31 21 -65 0 -28 10
-67 26 -101 43 -93 36 -90 214 -90 l156 0 27 28 c41 43 67 121 67 202 0 66 -1
70 -29 84 -16 9 -62 24 -102 36 -150 41 -459 67 -459 38z m471 -98 c22 -12 26
-59 7 -78 -7 -7 -21 -12 -33 -12 -29 0 -45 19 -45 52 0 39 34 57 71 38z"/>
<path d="M5092 2809 c-99 -9 -233 -42 -276 -67 -29 -17 -31 -21 -34 -89 -3
-81 21 -160 63 -205 l26 -28 158 0 c138 0 160 2 173 18 33 36 62 107 66 161 4
43 11 63 33 89 30 34 69 103 69 122 0 12 -151 12 -278 -1z m59 -99 c22 -12 26
-59 7 -78 -7 -7 -21 -12 -33 -12 -29 0 -45 19 -45 52 0 39 34 57 71 38z"/>
<path d="M4418 1920 c-69 -12 -138 -59 -138 -94 0 -3 90 -6 200 -6 110 0 200
4 200 8 0 15 -55 61 -90 75 -48 20 -116 26 -172 17z"/>
</g>
</svg>
